<svg height="957" xmlns="http://www.w3.org/2000/svg" xmlns:ev="http://www.w3.org/2001/xml-events" width="2513" xmlns:xlink="http://www.w3.org/1999/xlink" viewBox="0 0 2513 957"><style type="text/css"><![CDATA[
.st1 {fill:#000000;font-family:宋体;font-size:12pt;font-weight:bold}
.st3 {fill:#000000;font-family:微软雅黑;font-size:16pt;font-weight:bold}
.st4 {fill:#1f6391;font-family:宋体;font-size:12pt;font-weight:bold}
.st2 {fill:#c00000;font-family:微软雅黑;font-size:16pt;font-weight:bold}
]]></style><defs/><g transform="translate(5,5)" id="page1"><rect height="947" x="0" width="2503" stroke="#808080" fill="#ffffff" y="0"/><g transform="translate(1366,516.09)" id="shape1"><path d="M246,25.4L246,11C246,4.9,241.1,0,235,0L11,0C4.9,0,0,4.9,0,11L0,25.4C0,31.5,4.9,36.4,11,36.4L235,36.4C241.1,36.4,246,31.5,246,25.4z" stroke="#839292" fill="#839292"/><text class="st1"><tspan x="15" y="24.2">virtio_balloon_to_target</tspan></text></g><g transform="translate(1949.82,704.41)" id="shape2"><path d="M162.7,39.9L162.7,11C162.7,4.9,157.8,0,151.7,0L11,0C4.9,0,0,4.9,0,11L0,39.9C0,46,4.9,50.9,11,50.9L151.7,50.9C157.8,50.9,162.7,46,162.7,39.9z" stroke="#839292" fill="#839292"/><text class="st1"><tspan x="27.4" y="31.4">vm_interrupt</tspan></text></g><g transform="translate(1753.17,622.36)" id="shape3"><path d="M232.4,23.4L232.4,11C232.4,4.9,227.5,0,221.4,0L11,0C4.9,0,0,4.9,0,11L0,23.4C0,29.5,4.9,34.4,11,34.4L221.4,34.4C227.5,34.4,232.4,29.5,232.4,23.4z" stroke="#839292" fill="#839292"/><text class="st1"><tspan x="22.2" y="23.2">virtio_config_changed</tspan></text></g><g transform="translate(2142.15,625.11)" id="shape4"><path d="M162.7,20.6L162.7,11C162.7,4.9,157.8,0,151.7,0L11,0C4.9,0,0,4.9,0,11L0,20.6C0,26.7,4.9,31.6,11,31.6L151.7,31.6C157.8,31.6,162.7,26.7,162.7,20.6z" stroke="#839292" fill="#839292"/><text class="st1"><tspan x="14.4" y="21.8">vring_interrupt</tspan></text></g><g transform="translate(1753.17,566.86)" id="shape5"><path d="M233,23.4L233,11C233,4.9,228.1,0,222,0L11,0C4.9,0,0,4.9,0,11L0,23.4C0,29.5,4.9,34.4,11,34.4L222,34.4C228.1,34.4,233,29.5,233,23.4z" stroke="#839292" fill="#839292"/><text class="st1"><tspan x="13" y="23.2">__virtio_config_changed</tspan></text></g><g transform="translate(1753.17,511.36)" id="shape6"><path d="M233,23.4L233,11C233,4.9,228.1,0,222,0L11,0C4.9,0,0,4.9,0,11L0,23.4C0,29.5,4.9,34.4,11,34.4L222,34.4C228.1,34.4,233,29.5,233,23.4z" stroke="#839292" fill="#839292"/><text class="st1"><tspan x="9" y="23.2">drv->config_changed(dev)</tspan></text></g><g transform="translate(1753.17,455.85)" id="shape7"><path d="M233,23.4L233,11C233,4.9,228.1,0,222,0L11,0C4.9,0,0,4.9,0,11L0,23.4C0,29.5,4.9,34.4,11,34.4L222,34.4C228.1,34.4,233,29.5,233,23.4z" stroke="#839292" fill="#839292"/><text class="st1"><tspan x="31" y="23.2">virtballoon_changed</tspan></text></g><g transform="translate(1753.17,403.17)" id="shape8"><path d="M233,23.4L233,11C233,4.9,228.1,0,222,0L11,0C4.9,0,0,4.9,0,11L0,23.4C0,29.5,4.9,34.4,11,34.4L222,34.4C228.1,34.4,233,29.5,233,23.4z" stroke="#839292" fill="#839292"/><text class="st1"><tspan x="9" y="23.2">update_balloon_size_func</tspan></text></g><g transform="translate(1677.34,327.52)" id="shape9"><path d="M139.3,23.4L139.3,11C139.3,4.9,134.4,0,128.3,0L11,0C4.9,0,0,4.9,0,11L0,23.4C0,29.5,4.9,34.4,11,34.4L128.3,34.4C134.4,34.4,139.3,29.5,139.3,23.4z" stroke="#839292" fill="#839292"/><text class="st1"><tspan x="16.2" y="23.2">fill_balloon</tspan></text></g><g transform="translate(1910.36,326.15)" id="shape10"><path d="M139.3,23.4L139.3,11C139.3,4.9,134.4,0,128.3,0L11,0C4.9,0,0,4.9,0,11L0,23.4C0,29.5,4.9,34.4,11,34.4L128.3,34.4C134.4,34.4,139.3,29.5,139.3,23.4z" stroke="#839292" fill="#839292"/><text class="st1"><tspan x="16.2" y="23.2">leak_balloon</tspan></text></g><g transform="translate(1799.71,245.68)" id="shape11"><path d="M139.3,23.4L139.3,11C139.3,4.9,134.4,0,128.3,0L11,0C4.9,0,0,4.9,0,11L0,23.4C0,29.5,4.9,34.4,11,34.4L128.3,34.4C134.4,34.4,139.3,29.5,139.3,23.4z" stroke="#839292" fill="#839292"/><text class="st1"><tspan x="29.2" y="23.2">tell_host</tspan></text></g><g transform="translate(2142.15,569.61)" id="shape12"><path d="M162.7,20.6L162.7,11C162.7,4.9,157.8,0,151.7,0L11,0C4.9,0,0,4.9,0,11L0,20.6C0,26.7,4.9,31.6,11,31.6L151.7,31.6C157.8,31.6,162.7,26.7,162.7,20.6z" stroke="#839292" fill="#839292"/><text class="st1"><tspan x="32.4" y="21.8">vq.callback</tspan></text></g><g transform="translate(2348.64,484.33)" id="shape13"><path d="M115.9,20.6L115.9,11C115.9,4.9,111,0,104.9,0L11,0C4.9,0,0,4.9,0,11L0,20.6C0,26.7,4.9,31.6,11,31.6L104.9,31.6C111,31.6,115.9,26.7,115.9,20.6z" stroke="#839292" fill="#839292"/><text class="st1"><tspan x="8.4" y="21.8">balloon_ack</tspan></text></g><g transform="translate(1376.51,440.91)" id="shape14"><path d="M226.9,25.7L226.9,11C226.9,4.9,221.9,0,215.9,0L11,0C4.9,0,0,4.9,0,11L0,25.7C0,31.7,4.9,36.7,11,36.7L215.9,36.7C221.9,36.7,226.9,31.7,226.9,25.7z" stroke="#16a58a" fill="#118972"/><text class="st1"><tspan x="64.4" y="24.3">qmp command</tspan></text></g><g transform="translate(1376.51,591.02)" id="shape15"><path d="M226.9,25.4L226.9,11C226.9,4.9,221.9,0,215.9,0L11,0C4.9,0,0,4.9,0,11L0,25.4C0,31.5,4.9,36.4,11,36.4L215.9,36.4C221.9,36.4,226.9,31.5,226.9,25.4z" stroke="#839292" fill="#839292"/><text class="st1"><tspan x="23.4" y="24.2">virtio_notify_config</tspan></text></g><g transform="translate(596.06,440.6)" id="shape16"><path d="M261.4,25.4L261.4,11C261.4,4.9,256.4,0,250.4,0L11,0C4.9,0,0,4.9,0,11L0,25.4C0,31.5,4.9,36.4,11,36.4L250.4,36.4C256.4,36.4,261.4,31.5,261.4,25.4z" stroke="#839292" fill="#839292"/><text class="st1"><tspan x="9.2" y="15.2">virtio_balloon_receive_stat</tspan><tspan x="126.2" y="33.2">s</tspan></text></g><g transform="translate(736.61,574.2)" id="shape17"><path d="M261.4,37.9L261.4,11C261.4,4.9,256.4,0,250.4,0L11,0C4.9,0,0,4.9,0,11L0,37.9C0,43.9,4.9,48.9,11,48.9L250.4,48.9C256.4,48.9,261.4,43.9,261.4,37.9z" stroke="#839292" fill="#839292"/><text class="st1"><tspan x="72.2" y="21.4">virtio_notify</tspan><tspan x="36.2" y="39.4">(s->stats_vq_elem, 0)</tspan></text></g><g transform="translate(454.27,574.2)" id="shape18"><path d="M261.4,37.9L261.4,11C261.4,4.9,256.4,0,250.4,0L11,0C4.9,0,0,4.9,0,11L0,37.9C0,43.9,4.9,48.9,11,48.9L250.4,48.9C256.4,48.9,261.4,43.9,261.4,37.9z" stroke="#839292" fill="#839292"/><text class="st1"><tspan x="14.2" y="21.4">balloon_stats_change_timer</tspan><tspan x="86.2" y="39.4">(interval)</tspan></text></g><g transform="translate(106.59,466.86)" id="shape19"><path d="M226.9,25.7L226.9,11C226.9,4.9,221.9,0,215.9,0L11,0C4.9,0,0,4.9,0,11L0,25.7C0,31.7,4.9,36.7,11,36.7L215.9,36.7C221.9,36.7,226.9,31.7,226.9,25.7z" stroke="#839292" fill="#236ea1"/><text class="st1"><tspan x="91.4" y="24.3">Timer</tspan></text></g><g transform="translate(106.59,528.81)" id="shape20"><path d="M226.9,25.7L226.9,11C226.9,4.9,221.9,0,215.9,0L11,0C4.9,0,0,4.9,0,11L0,25.7C0,31.7,4.9,36.7,11,36.7L215.9,36.7C221.9,36.7,226.9,31.7,226.9,25.7z" stroke="#839292" fill="#839292"/><text class="st1"><tspan x="19.4" y="24.3">balloon_stats_poll_cb</tspan></text></g><g transform="translate(40.01,596.26)" id="shape21"><path d="M357.5,59.1L357.5,11C357.5,4.9,352.6,0,346.5,0L11,0C4.9,0,0,4.9,0,11L0,59.1C0,65.1,4.9,70.1,11,70.1L346.5,70.1C352.6,70.1,357.5,65.1,357.5,59.1z" stroke="#839292" fill="#839292"/><text class="st1"><tspan x="120.3" y="23">virtio_notify</tspan><tspan x="98.3" y="41">(s->stats_vq_elem,</tspan><tspan x="93.3" y="59">s->stats_vq_offset)</tspan></text></g><g transform="translate(1489.94,477.57)" id="shape22"><path d="M0,0L0,14.5C0,18.9,-0.2,26.1,-0.5,30.5L-0.7,34.1" stroke="#839292" fill="none"/><path stroke-linecap="round" d="M-0.9,38.5L2.4,33.5C1.4,34,.4,34.2,-0.7,34.1C-1.8,34.1,-2.8,33.7,-3.6,33.2L-0.9,38.5" stroke="#839292" stroke-width="1" fill="#839292"/></g><g transform="translate(1489,552.5)" id="shape23"><path d="M0,0L0,14.5C0,18.9,.2,26.1,.5,30.5L.7,34.1" stroke="#839292" fill="none"/><path stroke-linecap="round" d="M.9,38.5L3.6,33.2C2.8,33.7,1.8,34.1,.7,34.1C-0.4,34.2,-1.4,34,-2.4,33.5L.9,38.5" stroke="#839292" stroke-width="1" fill="#839292"/></g><g transform="translate(1489.94,627.43)" id="shape24"><path d="M0,0L0,139.3C0,145.3,4.9,150.3,11,150.3L530.3,150.3C536.3,150.3,541.3,145.3,541.3,139.3L541.3,132.3" stroke="#839292" fill="none"/><path stroke-linecap="round" d="M541.3,127.9L538.3,133.1C539.1,132.6,540.2,132.3,541.3,132.3C542.3,132.3,543.4,132.6,544.3,133.1L541.3,127.9" stroke="#839292" stroke-width="1" fill="#839292"/><rect height="18" x="-58.4" width="119.6" fill="#ffffff" y="11"/><text class="st1"><tspan x="-58.5" y="26">configuration</tspan></text><rect height="18" x="71.8" width="275.9" fill="#ffffff" y="141.3"/><text class="st1"><tspan x="71.7" y="156.3">configuration change interrupt</tspan></text></g><g transform="translate(2031.19,704.41)" id="shape25"><path d="M0,0L0,-8.7C0,-12.5,-3.1,-15.7,-7,-15.7L-150.8,-15.7C-156.9,-15.7,-161.8,-20.6,-161.8,-26.7L-161.8,-43.3" stroke="#839292" fill="none"/><path stroke-linecap="round" d="M-161.8,-47.7L-164.8,-42.5C-163.9,-43,-162.9,-43.3,-161.8,-43.3C-160.7,-43.3,-159.7,-43,-158.8,-42.5L-161.8,-47.7" stroke="#839292" stroke-width="1" fill="#839292"/></g><g transform="translate(2031.19,704.41)" id="shape26"><path d="M0,0L0,-8.7C0,-12.5,3.1,-15.7,7,-15.7L181.3,-15.7C187.4,-15.7,192.3,-20.6,192.3,-26.7L192.3,-43.3" stroke="#839292" fill="none"/><path stroke-linecap="round" d="M192.3,-47.7L189.3,-42.5C190.2,-43,191.2,-43.3,192.3,-43.3C193.4,-43.3,194.4,-43,195.3,-42.5L192.3,-47.7" stroke="#839292" stroke-width="1" fill="#839292"/></g><g transform="translate(1869.37,622.36)" id="shape27"><path d="M0,0L0,-9.1C0,-11.3,.1,-14.9,.2,-17.1" stroke="#839292" fill="none"/><path stroke-linecap="round" d="M.3,-21.1L-2.9,-16C-2,-16.5,-1,-16.8,.1,-16.7C1.2,-16.7,2.2,-16.4,3.1,-15.8L.3,-21.1" stroke="#839292" stroke-width="1" fill="#839292"/></g><g transform="translate(1869.68,566.86)" id="shape28"><path d="M0,0L0,-16.7" stroke="#839292" fill="none"/><path stroke-linecap="round" d="M0,-21.1L-3,-15.9C-2.1,-16.4,-1.1,-16.7,0,-16.7C1.1,-16.7,2.1,-16.4,3,-15.9L0,-21.1" stroke="#839292" stroke-width="1" fill="#839292"/></g><g transform="translate(1869.68,511.36)" id="shape29"><path d="M0,0L0,-16.7" stroke="#839292" fill="none"/><path stroke-linecap="round" d="M0,-21.1L-3,-15.9C-2.1,-16.4,-1.1,-16.7,0,-16.7C1.1,-16.7,2.1,-16.4,3,-15.9L0,-21.1" stroke="#839292" stroke-width="1" fill="#839292"/></g><g transform="translate(1869.68,455.85)" id="shape30"><path d="M0,0L0,-13.9" stroke="#839292" fill="none"/><path stroke-linecap="round" d="M0,-18.3L-3,-13.1C-2.1,-13.6,-1.1,-13.9,0,-13.9C1.1,-13.9,2.1,-13.6,3,-13.1L0,-18.3" stroke="#839292" stroke-width="1" fill="#839292"/></g><g transform="translate(1869.68,403.17)" id="shape31"><path d="M0,0L0,-14.3C0,-20.3,-4.9,-25.3,-11,-25.3L-114.7,-25.3C-119.1,-25.3,-122.7,-28.8,-122.7,-33.3L-122.7,-36.9" stroke="#839292" fill="none"/><path stroke-linecap="round" d="M-122.7,-41.3L-125.7,-36.1C-124.8,-36.6,-123.8,-36.9,-122.7,-36.9C-121.6,-36.9,-120.6,-36.6,-119.7,-36.1L-122.7,-41.3" stroke="#839292" stroke-width="1" fill="#839292"/></g><g transform="translate(1869.68,403.17)" id="shape32"><path d="M0,0L0,-15.6C0,-21.7,4.9,-26.6,11,-26.6L102.3,-26.6C106.8,-26.6,110.3,-30.2,110.3,-34.6L110.3,-38.2" stroke="#839292" fill="none"/><path stroke-linecap="round" d="M110.3,-42.6L107.3,-37.4C108.2,-38,109.2,-38.2,110.3,-38.2C111.4,-38.2,112.5,-38,113.3,-37.4L110.3,-42.6" stroke="#839292" stroke-width="1" fill="#839292"/></g><g transform="translate(1747,327.52)" id="shape33"><path d="M0,0L0,-8.5C0,-12.3,3.1,-15.5,7,-15.5L111.4,-15.5C117.4,-15.5,122.4,-20.4,122.4,-26.5L122.4,-43.1" stroke="#839292" fill="none"/><path stroke-linecap="round" d="M122.4,-47.5L119.4,-42.3C120.3,-42.8,121.3,-43.1,122.4,-43.1C123.5,-43.1,124.5,-42.8,125.4,-42.3L122.4,-47.5" stroke="#839292" stroke-width="1" fill="#839292"/></g><g transform="translate(1980.02,326.15)" id="shape34"><path d="M0,0L0,-7.1C0,-10.9,-3.1,-14.1,-7,-14.1L-99.7,-14.1C-105.7,-14.1,-110.7,-19,-110.7,-25.1L-110.7,-41.7" stroke="#839292" fill="none"/><path stroke-linecap="round" d="M-110.7,-46.1L-113.7,-40.9C-112.8,-41.4,-111.7,-41.7,-110.7,-41.7C-109.6,-41.7,-108.5,-41.4,-107.7,-40.9L-110.7,-46.1" stroke="#839292" stroke-width="1" fill="#839292"/></g><g transform="translate(2049.98,170.02)" id="shape35"><path d="M0,0L0,-16.2C0,-22.3,-4.9,-27.2,-11,-27.2L-872,-27.2C-878.1,-27.2,-883,-22.3,-883,-16.2L-883,263.4" stroke="#839292" fill="none"/><path stroke-linecap="round" d="M-883,267.8L-880,262.6C-880.9,263.1,-881.9,263.4,-883,263.4C-884.1,263.4,-885.1,263.1,-886,262.6L-883,267.8" stroke="#839292" stroke-width="1" fill="#839292"/><rect height="18" x="-669.8" width="193.2" fill="#ffffff" y="-36.2"/><text class="st1"><tspan x="-669.9" y="-21.2">inflate/deflate queue</tspan></text><rect height="18" x="-918.9" width="73.6" fill="#ffffff" y="229.8"/><rect height="18" x="-913.8" width="64.4" fill="#ffffff" y="247.8"/><text class="st1"><tspan x="-919" y="244.8">inflate/</tspan><tspan x="-914" y="262.8">deflate</tspan></text></g><path transform="matrix(0,1,-1,0,1654.5,68.7)" d="M0,0L831.3,0" stroke="#c00000" id="shape36" stroke-width="3.33333" fill="none"/><g transform="matrix(0,-1,1,0,2223.5,625.1)" id="shape37"><path d="M0,0L19.5,0" stroke="#839292" fill="none"/><path stroke-linecap="round" d="M23.9,0L18.7,-3C19.2,-2.1,19.5,-1.1,19.5,0C19.5,1.1,19.2,2.1,18.7,3L23.9,0" stroke="#839292" stroke-width="1" fill="#839292"/></g><g transform="translate(1030,437.85)" id="shape38"><path d="M274,25.4L274,11C274,4.9,269.1,0,263,0L11,0C4.9,0,0,4.9,0,11L0,25.4C0,31.5,4.9,36.4,11,36.4L263,36.4C269.1,36.4,274,31.5,274,25.4z" stroke="#839292" fill="#839292"/><text class="st1"><tspan x="11" y="24.2">virtio_balloon_handle_output</tspan></text></g><g transform="translate(1035.59,512.3)" id="shape39"><path d="M261.4,25.4L261.4,11C261.4,4.9,256.4,0,250.4,0L11,0C4.9,0,0,4.9,0,11L0,25.4C0,31.5,4.9,36.4,11,36.4L250.4,36.4C256.4,36.4,261.4,31.5,261.4,25.4z" stroke="#839292" fill="#839292"/><text class="st1"><tspan x="77.2" y="24.2">balloon_page</tspan></text></g><g transform="translate(1035.59,588)" id="shape40"><path d="M261.4,36.6L261.4,11C261.4,4.9,256.4,0,250.4,0L11,0C4.9,0,0,4.9,0,11L0,36.6C0,42.7,4.9,47.6,11,47.6L250.4,47.6C256.4,47.6,261.4,42.7,261.4,36.6z" stroke="#839292" fill="#839292"/><text class="st1"><tspan x="72.2" y="20.8">virtio_notify</tspan><tspan x="68.2" y="38.8">(elem, offset)</tspan></text></g><g transform="translate(1167,474.27)" id="shape41"><path d="M0,0L0,14C0,18.4,-0.2,25.6,-0.4,30L-0.5,33.6" stroke="#839292" fill="none"/><path stroke-linecap="round" d="M-0.7,38L2.5,33C1.6,33.4,.6,33.7,-0.5,33.6C-1.6,33.6,-2.6,33.3,-3.5,32.7L-0.7,38" stroke="#839292" stroke-width="1" fill="#839292"/></g><g transform="translate(1166.28,548.72)" id="shape42"><path d="M0,0L0,34.9" stroke="#839292" fill="none"/><path stroke-linecap="round" d="M0,39.3L3,34.1C2.1,34.6,1.1,34.9,0,34.9C-1.1,34.9,-2.1,34.6,-3,34.1L0,39.3" stroke="#839292" stroke-width="1" fill="#839292"/></g><g transform="translate(1166.28,635.63)" id="shape43"><path d="M0,0L0,150.1C0,156.1,4.9,161.1,11,161.1L853.9,161.1C860,161.1,864.9,156.1,864.9,150.1L864.9,124.1" stroke="#839292" fill="none"/><path stroke-linecap="round" d="M864.9,119.7L861.9,124.9C862.8,124.4,863.8,124.1,864.9,124.1C866,124.1,867,124.4,867.9,124.9L864.9,119.7" stroke="#839292" stroke-width="1" fill="#839292"/><rect height="18" x="-39.6" width="82.8" fill="#ffffff" y="2"/><rect height="18" x="-76.4" width="156.4" fill="#ffffff" y="20"/><text class="st1"><tspan x="-40.5" y="17">virtqueue</tspan><tspan x="-76.5" y="35">(inflate,deflate)</tspan></text><rect height="18" x="305.2" width="138" fill="#ffffff" y="152.1"/><text class="st1"><tspan x="305.1" y="167.1">vring interrupt</tspan></text></g><g transform="translate(220.02,503.52)" id="shape44"><path d="M0,0L0,20.9" stroke="#839292" fill="none"/><path stroke-linecap="round" d="M0,25.3L3,20.1C2.1,20.6,1.1,20.9,0,20.9C-1.1,20.9,-2.1,20.6,-3,20.1L0,25.3" stroke="#839292" stroke-width="1" fill="#839292"/></g><g transform="translate(220.02,565.46)" id="shape45"><path d="M0,0L0,14.8C0,14.8,0,14.8,0,14.8L-1.2,14.8C-1.2,14.8,-1.2,14.8,-1.2,14.8L-1.2,26.4" stroke="#839292" fill="none"/><path stroke-linecap="round" d="M-1.2,30.8L1.8,25.6C.9,26.1,-0.1,26.4,-1.2,26.4C-2.3,26.4,-3.4,26.1,-4.2,25.6L-1.2,30.8" stroke="#839292" stroke-width="1" fill="#839292"/></g><g transform="translate(218.78,666.31)" id="shape46"><path d="M0,0L0,171.7C0,177.8,4.9,182.7,11,182.7L1801.4,182.7C1807.5,182.7,1812.4,177.8,1812.4,171.7L1812.4,93.4" stroke="#839292" fill="none"/><path stroke-linecap="round" d="M1812.4,89L1809.4,94.2C1810.3,93.7,1811.3,93.4,1812.4,93.4C1813.5,93.4,1814.5,93.7,1815.4,94.2L1812.4,89" stroke="#839292" stroke-width="1" fill="#839292"/><rect height="18" x="-40.4" width="82.8" fill="#ffffff" y="2"/><rect height="18" x="-35.3" width="73.6" fill="#ffffff" y="20"/><text class="st1"><tspan x="-40.5" y="17">virtqueue</tspan><tspan x="-35.5" y="35">(status)</tspan></text><rect height="18" x="794.3" width="138" fill="#ffffff" y="173.7"/><text class="st1"><tspan x="794.2" y="188.7">vring interrupt</tspan></text></g><g transform="translate(726.74,477.02)" id="shape47"><path d="M0,0L0,54.2C0,60.3,-4.9,65.2,-11,65.2L-130.8,65.2C-136.9,65.2,-141.8,70.1,-141.8,76.2L-141.8,92.8" stroke="#839292" fill="none"/><path stroke-linecap="round" d="M-141.8,97.2L-138.8,92C-139.7,92.5,-140.7,92.8,-141.8,92.8C-142.9,92.8,-143.9,92.5,-144.8,92L-141.8,97.2" stroke="#839292" stroke-width="1" fill="#839292"/></g><g transform="translate(726.74,477.02)" id="shape48"><path d="M0,0L0,54.2C0,60.3,4.9,65.2,11,65.2L129.6,65.2C135.6,65.2,140.6,70.1,140.6,76.2L140.6,92.8" stroke="#839292" fill="none"/><path stroke-linecap="round" d="M140.6,97.2L143.6,92C142.7,92.5,141.6,92.8,140.6,92.8C139.5,92.8,138.4,92.5,137.6,92L140.6,97.2" stroke="#839292" stroke-width="1" fill="#839292"/></g><g transform="translate(867.3,623.06)" id="shape49"><path d="M0,0L0,190.6C0,196.7,4.9,201.6,11,201.6L1152.9,201.6C1159,201.6,1163.9,196.7,1163.9,190.6L1163.9,136.6" stroke="#839292" fill="none"/><path stroke-linecap="round" d="M1163.9,132.2L1160.9,137.4C1161.8,136.9,1162.8,136.6,1163.9,136.6C1165,136.6,1166,136.9,1166.9,137.4L1163.9,132.2" stroke="#839292" stroke-width="1" fill="#839292"/><rect height="18" x="-40.4" width="82.8" fill="#ffffff" y="2"/><rect height="18" x="-35.3" width="73.6" fill="#ffffff" y="20"/><text class="st1"><tspan x="-40.5" y="17">virtqueue</tspan><tspan x="-35.5" y="35">(status)</tspan></text><rect height="18" x="448.4" width="138" fill="#ffffff" y="192.6"/><text class="st1"><tspan x="448.3" y="207.6">vring interrupt</tspan></text></g><g transform="translate(2142.15,484.33)" id="shape50"><path d="M162.7,20.6L162.7,11C162.7,4.9,157.8,0,151.7,0L11,0C4.9,0,0,4.9,0,11L0,20.6C0,26.7,4.9,31.6,11,31.6L151.7,31.6C157.8,31.6,162.7,26.7,162.7,20.6z" stroke="#839292" fill="#839292"/><text class="st1"><tspan x="23.4" y="21.8">stats_request</tspan></text></g><g transform="translate(2099.93,421.74)" id="shape51"><path d="M247.2,20.6L247.2,11C247.2,4.9,242.2,0,236.2,0L11,0C4.9,0,0,4.9,0,11L0,20.6C0,26.7,4.9,31.6,11,31.6L236.2,31.6C242.2,31.6,247.2,26.7,247.2,20.6z" stroke="#839292" fill="#839292"/><text class="st1"><tspan x="11.1" y="21.8">update_balloon_stats_func</tspan></text></g><g transform="translate(2223.52,569.61)" id="shape52"><path d="M0,0L0,-8C0,-11.9,3.1,-15,7,-15L172.1,-15C178.1,-15,183.1,-19.9,183.1,-26L183.1,-49.3" stroke="#839292" fill="none"/><path stroke-linecap="round" d="M183.1,-53.6L180.1,-48.4C181,-49,182,-49.3,183.1,-49.3C184.2,-49.3,185.2,-49,186.1,-48.4L183.1,-53.6" stroke="#839292" stroke-width="1" fill="#839292"/></g><g transform="translate(2223.52,585.43)" id="shape53"><path d="M0,0L0,-65.1" stroke="#839292" fill="none"/><path stroke-linecap="round" d="M0,-69.5L-3,-64.3C-2.1,-64.8,-1.1,-65.1,0,-65.1C1.1,-65.1,2.1,-64.8,3,-64.3L0,-69.5" stroke="#839292" stroke-width="1" fill="#839292"/></g><g transform="translate(2223.52,484.33)" id="shape54"><path d="M0,0L0,-26.6" stroke="#839292" fill="none"/><path stroke-linecap="round" d="M0,-30.9L-3,-25.8C-2.1,-26.3,-1.1,-26.6,0,-26.6C1.1,-26.6,2.1,-26.3,3,-25.8L0,-30.9" stroke="#839292" stroke-width="1" fill="#839292"/></g><g transform="translate(2099.93,359.16)" id="shape55"><path d="M247.2,20.6L247.2,11C247.2,4.9,242.2,0,236.2,0L11,0C4.9,0,0,4.9,0,11L0,20.6C0,26.7,4.9,31.6,11,31.6L236.2,31.6C242.2,31.6,247.2,26.7,247.2,20.6z" stroke="#839292" fill="#839292"/><text class="st1"><tspan x="34.1" y="21.8">stats_handle_request</tspan></text></g><g transform="translate(2099.93,296.57)" id="shape56"><path d="M247.2,20.6L247.2,11C247.2,4.9,242.2,0,236.2,0L11,0C4.9,0,0,4.9,0,11L0,20.6C0,26.7,4.9,31.6,11,31.6L236.2,31.6C242.2,31.6,247.2,26.7,247.2,20.6z" stroke="#839292" fill="#839292"/><text class="st1"><tspan x="34.1" y="21.8">update_balloon_stats</tspan></text></g><g transform="translate(2223.52,421.74)" id="shape57"><path d="M0,0L0,-26.6" stroke="#839292" fill="none"/><path stroke-linecap="round" d="M0,-30.9L-3,-25.8C-2.1,-26.3,-1.1,-26.6,0,-26.6C1.1,-26.6,2.1,-26.3,3,-25.8L0,-30.9" stroke="#839292" stroke-width="1" fill="#839292"/></g><g transform="translate(2223.52,359.16)" id="shape58"><path d="M0,0L0,-26.6" stroke="#839292" fill="none"/><path stroke-linecap="round" d="M0,-30.9L-3,-25.8C-2.1,-26.3,-1.1,-26.6,0,-26.6C1.1,-26.6,2.1,-26.3,3,-25.8L0,-30.9" stroke="#839292" stroke-width="1" fill="#839292"/></g><g transform="translate(1926.39,170.02)" id="shape59"><path d="M247.2,20.6L247.2,11C247.2,4.9,242.2,0,236.2,0L11,0C4.9,0,0,4.9,0,11L0,20.6C0,26.7,4.9,31.6,11,31.6L236.2,31.6C242.2,31.6,247.2,26.7,247.2,20.6z" stroke="#839292" fill="#839292"/><text class="st1"><tspan x="61.1" y="21.8">virtqueue_kick</tspan></text></g><g transform="translate(1869.37,245.68)" id="shape60"><path d="M0,0L0,-8.5C0,-12.9,3.6,-16.5,8,-16.5L169.6,-16.5C175.7,-16.5,180.6,-21.4,180.6,-27.5L180.6,-39.6" stroke="#839292" fill="none"/><path stroke-linecap="round" d="M180.6,-44L177.6,-38.8C178.5,-39.3,179.5,-39.6,180.6,-39.6C181.7,-39.6,182.7,-39.3,183.6,-38.8L180.6,-44" stroke="#839292" stroke-width="1" fill="#839292"/></g><g transform="translate(2223.52,296.57)" id="shape61"><path d="M0,0L0,-42.5C0,-48.6,-4.9,-53.5,-11,-53.5L-162.5,-53.5C-168.6,-53.5,-173.5,-58.4,-173.5,-64.5L-173.5,-90.5" stroke="#839292" fill="none"/><path stroke-linecap="round" d="M-173.5,-94.9L-176.5,-89.7C-175.7,-90.2,-174.6,-90.5,-173.5,-90.5C-172.4,-90.5,-171.4,-90.2,-170.5,-89.7L-173.5,-94.9" stroke="#839292" stroke-width="1" fill="#839292"/></g><g transform="translate(1834.52,198.22)" id="shape62"><text class="st1"><tspan x="11.4" y="20.8">vb->pfns</tspan></text></g><g transform="translate(2118.09,220.92)" id="shape63"><text class="st1"><tspan x="15.5" y="21.8">vb->stats</tspan></text></g><g transform="translate(2344.94,546.91)" id="shape64"><text class="st1"><tspan x="4.296 13.296 22.296 31.296 40.296 49.296 58.296 67.296 76.296 85.296 94.296 " y="19">inflate_vq,</tspan><tspan x="4.296 13.296 22.296 31.296 40.296 49.296 58.296 67.296 76.296 85.296 " y="37">deflate_vq</tspan></text></g><g transform="translate(2118.08,516.09)" id="shape65"><text class="st1"><tspan x="24.3" y="22.4">stats_vq</tspan></text></g><g transform="translate(454.27,598.63)" id="shape66"><path d="M0,0L-21.5,0C-27.6,0,-32.5,-4.9,-32.5,-11L-32.5,-102.4C-32.5,-108.5,-37.4,-113.4,-43.5,-113.4L-116.4,-113.4" stroke="#839292" fill="none"/><path stroke-linecap="round" d="M-120.8,-113.4L-115.6,-110.4C-116.1,-111.3,-116.4,-112.4,-116.4,-113.4C-116.4,-114.5,-116.1,-115.6,-115.6,-116.4L-120.8,-113.4" stroke="#839292" stroke-width="1" fill="#839292"/></g><g transform="translate(2049.98,170.02)" id="shape67"><path d="M0,0L0,-53.5C0,-59.6,-4.9,-64.5,-11,-64.5L-1312.2,-64.5C-1318.3,-64.5,-1323.2,-59.6,-1323.2,-53.5L-1323.2,266.2" stroke="#839292" fill="none"/><path stroke-linecap="round" d="M-1323.2,270.6L-1320.2,265.4C-1321.1,265.9,-1322.1,266.2,-1323.2,266.2C-1324.3,266.2,-1325.4,265.9,-1326.2,265.4L-1323.2,270.6" stroke="#839292" stroke-width="1" fill="#839292"/><rect height="18" x="-855.3" width="119.6" fill="#ffffff" y="-73.5"/><text class="st1"><tspan x="-855.4" y="-58.5">status queue </tspan></text><rect height="18" x="-1350.1" width="55.2" fill="#ffffff" y="241.6"/><text class="st1"><tspan x="-1350.2" y="256.6">status</tspan></text></g><g transform="translate(1517,40)" id="shape68"><text class="st2"><tspan x="19" y="35.5">qemu后端</tspan></text></g><g transform="translate(1648.5,40)" id="shape69"><text class="st3"><tspan x="19" y="35.5">Guest前端</tspan></text></g><g transform="matrix(0,-1,1,0,1786,293)" id="shape70"><path d="M0,0C0,-393.7,27.5,-173.8,17.3,-4.3" stroke="#236ea1" fill="none"/><path stroke-linecap="round" d="M17,0L20.3,-5C19.4,-4.5,18.4,-4.3,17.3,-4.4C16.2,-4.5,15.2,-4.8,14.3,-5.4L17,0" stroke="#236ea1" stroke-width="1" fill="#236ea1"/></g><g transform="matrix(0,-1,1,0,1739,397)" id="shape71"><path d="M0,0C-8.9,-169,16.7,-272.8,17,-4.6" stroke="#236ea1" fill="none"/><path stroke-linecap="round" d="M17,0L20,-5.2C19.1,-4.7,18.1,-4.4,17,-4.4C15.9,-4.4,14.9,-4.7,14,-5.2L17,0" stroke="#236ea1" stroke-width="1" fill="#236ea1"/></g><g transform="translate(1521,340)" id="shape72"><text class="st4"><tspan x="35" y="16">vm-exit</tspan><tspan x="17" y="34">read config</tspan></text></g><g transform="translate(1524,234.07)" id="shape73"><text class="st4"><tspan x="35" y="16">vm-exit</tspan><tspan x="13" y="34">write config</tspan></text></g></g></svg>